<?xml version="1.0" encoding="utf-8"?>
<!-- Generator: Adobe Illustrator 25.3.1, SVG Export Plug-In . SVG Version: 6.00 Build 0)  -->
<svg version="1.1" id="Capa_1" xmlns="http://www.w3.org/2000/svg" xmlns:xlink="http://www.w3.org/1999/xlink" x="0px" y="0px"
	 viewBox="0 0 50 75" style="enable-background:new 0 0 50 75;" xml:space="preserve">
<style type="text/css">
	.st0{fill:#556080;}
	.st1{fill:#E7ECED;}
</style>
<rect class="st0" width="50" height="75"/>
<path class="st1" d="M14.5,54.6L3.9,60.4c-0.6,0.3-1.2,0.8-1.7,1.2c6.2,5.2,14.2,8.4,22.9,8.4c8.7,0,16.6-3.1,22.8-8.2
	c-0.6-0.5-1.2-0.9-1.9-1.3l-11.4-5.7c-1.5-0.7-2.4-2.2-2.4-3.9v-4.5c0.3-0.4,0.7-0.8,1.1-1.4c1.5-2.2,2.7-4.6,3.5-7.1
	c1.5-0.4,2.5-1.8,2.5-3.4v-4.8c0-1-0.5-2-1.2-2.6v-6.9c0,0,1.4-10.7-13.1-10.7S12,20.3,12,20.3v6.9c-0.7,0.7-1.2,1.6-1.2,2.6v4.8
	c0,1.3,0.7,2.4,1.6,3c1.2,5.2,4.3,8.9,4.3,8.9v4.3C16.7,52.4,15.9,53.8,14.5,54.6z"/>
</svg>
