<?xml version="1.0" encoding="utf-8"?>
<!-- Generator: Adobe Illustrator 25.3.1, SVG Export Plug-In . SVG Version: 6.00 Build 0)  -->
<svg version="1.1" id="Capa_1" xmlns="http://www.w3.org/2000/svg" xmlns:xlink="http://www.w3.org/1999/xlink" x="0px" y="0px"
	 viewBox="0 0 50 75" style="enable-background:new 0 0 50 75;" xml:space="preserve">
<style type="text/css">
	.st0{fill:#556080;}
	.st1{fill:#E7ECED;}
</style>
<rect class="st0" width="50" height="75"/>
<path class="st1" d="M16.8,29v-8.6h1.7l3.5,5.7v-5.7h1.6V29h-1.7l-3.5-5.6V29H16.8z M25.1,24.8c0-0.9,0.1-1.6,0.4-2.2
	c0.2-0.4,0.5-0.8,0.8-1.2s0.7-0.6,1.1-0.8c0.5-0.2,1.2-0.3,1.9-0.3c1.3,0,2.3,0.4,3,1.2s1.1,1.9,1.1,3.3c0,1.4-0.4,2.5-1.1,3.3
	s-1.8,1.2-3,1.2c-1.3,0-2.3-0.4-3-1.2S25.1,26.2,25.1,24.8z M26.9,24.7c0,1,0.2,1.7,0.7,2.2s1,0.8,1.7,0.8s1.3-0.2,1.7-0.7
	s0.7-1.2,0.7-2.2c0-1-0.2-1.7-0.6-2.2s-1-0.7-1.7-0.7S28,22,27.5,22.5S26.9,23.8,26.9,24.7z M6,43.4v-8.6h1.7v8.6H6z M9.4,43.4v-8.6
	H12l1.6,5.9l1.5-5.9h2.6v8.6h-1.6v-6.8l-1.7,6.8h-1.7L11,36.7v6.8H9.4z M27.2,43.4h-1.9l-0.8-2h-3.4l-0.7,2h-1.8l3.3-8.6h1.8
	L27.2,43.4z M24,40l-1.2-3.2L21.6,40H24z M32.1,40.3v-1.4h3.7v3.4c-0.4,0.4-0.9,0.7-1.6,0.9s-1.4,0.4-2.1,0.4
	c-0.9,0-1.7-0.2-2.3-0.6s-1.2-0.9-1.5-1.6s-0.5-1.5-0.5-2.3c0-0.9,0.2-1.7,0.6-2.4s0.9-1.2,1.6-1.6c0.6-0.3,1.2-0.4,2.1-0.4
	c1.1,0,1.9,0.2,2.5,0.7s1,1.1,1.2,1.9L34,37.6c-0.1-0.4-0.3-0.8-0.7-1s-0.8-0.4-1.3-0.4c-0.8,0-1.4,0.2-1.8,0.7s-0.7,1.2-0.7,2.1
	c0,1,0.2,1.8,0.7,2.3s1,0.8,1.8,0.8c0.4,0,0.7-0.1,1.1-0.2s0.7-0.3,0.9-0.5v-1.1H32.1z M37.4,43.4v-8.6h6.4v1.5h-4.6v1.9h4.3v1.4
	h-4.3V42H44v1.4H37.4z M22.1,53.3v-1.6h1.6v1.6H22.1z M22.1,57.8v-1.6h1.6v1.6H22.1z M28.5,60.4h-1.1c-0.6-0.9-1.1-1.8-1.4-2.8
	s-0.5-1.9-0.5-2.8c0-1.1,0.2-2.2,0.6-3.2c0.3-0.9,0.8-1.7,1.3-2.4h1.1c-0.5,1.2-0.9,2.2-1.1,3s-0.3,1.7-0.3,2.6c0,0.6,0.1,1.3,0.2,2
	s0.3,1.3,0.5,1.9C27.9,59,28.1,59.6,28.5,60.4z"/>
</svg>
